{"title":"Downtime with Bill Maher 2012.01.27.XviD","uid":6991425,"size":28325888,"categoryP":"video","categoryS":"tv_shows","magnet":"?xt=urn:btih:efc0f95e6cf07606217824ac8924bb1837832d89&amp;dn=Downtime+with+Bill+Maher+2012.01.27.XviD&amp;tr=udp%3A%2F%2Ftracker.openbittorrent.com%3A80&amp;tr=udp%3A%2F%2Fopen.demonii.com%3A1337&amp;tr=udp%3A%2F%2Ftracker.coppersurfer.tk%3A6969&amp;tr=udp%3A%2F%2Fexodus.desync.com%3A6969","seeders":0,"leechers":0,"uploader":"LserEvil","files":1,"time":1327716243,"description":"Downtime with Bill Maher - January 27 2012 XviD\n\n\nGeneral\nComplete name                    : Downtime.With.Bill.Maher.2012.01.27.XviD.avi\nFormat                           : AVI\nFormat/Info                      : Audio Video Interleave\nFile size                        : 27.0 MiB\nDuration                         : 3mn 49s\nOverall bit rate                 : 986 Kbps\nWriting application              : VirtualDubMod 1.5.4.1 (build 2178/release)\nWriting library                  : VirtualDubMod build 2178/release\n\nVideo\nID                               : 0\nFormat                           : MPEG-4 Visual\nFormat profile                   : Advanced Simple@L5\nFormat settings, BVOP            : 1\nFormat settings, QPel            : No\nFormat settings, GMC             : No warppoints\nFormat settings, Matrix          : Custom\nCodec ID                         : XVID\nCodec ID/Hint                    : XviD\nDuration                         : 3mn 49s\nBit rate                         : 865 Kbps\nWidth                            : 624 pixels\nHeight                           : 352 pixels\nDisplay aspect ratio             : 16:9\nFrame rate                       : 29.970 fps\nColor space                      : YUV\nChroma subsampling               : 4:2:0\nBit depth                        : 8 bits\nScan type                        : Progressive\nCompression mode                 : Lossy\nBits/(Pixel*Frame)               : 0.131\nStream size                      : 23.7 MiB (88%)\nWriting library                  : XviD 64\n\nAudio\nID                               : 1\nFormat                           : MPEG Audio\nFormat version                   : Version 1\nFormat profile                   : Layer 3\nMode                             : Joint stereo\nMode extension                   : MS Stereo\nCodec ID                         : 55\nCodec ID/Hint                    : MP3\nDuration                         : 3mn 49s\nBit rate mode                    : Constant\nBit rate                         : 112 Kbps\nChannel(s)                       : 2 channels\nSampling rate                    : 44.1 KHz\nCompression mode                 : Lossy\nStream size                      : 3.07 MiB (11%)\nAlignment                        : Split accross interleaves\nInterleave, duration             : 67 ms (2.00 video frames)\nInterleave, preload duration     : 500 ms\nWriting library                  : LAME3.98r\nEncoding settings                : -m j -V 4 -q 2 -lowpass 15.6 -b 112\n","torrent":{"xt":"urn:btih:efc0f95e6cf07606217824ac8924bb1837832d89","amp;dn":"Downtime+with+Bill+Maher+2012.01.27.XviD","amp;tr":["udp%3A%2F%2Ftracker.openbittorrent.com%3A80","udp%3A%2F%2Fopen.demonii.com%3A1337","udp%3A%2F%2Ftracker.coppersurfer.tk%3A6969","udp%3A%2F%2Fexodus.desync.com%3A6969"],"infoHash":"efc0f95e6cf07606217824ac8924bb1837832d89","infoHashBuffer":{"type":"Buffer","data":[239,192,249,94,108,240,118,6,33,120,36,172,137,36,187,24,55,131,45,137]},"announce":[],"urlList":[]}}